<svg width="524" height="131" viewBox="0 0 524 131" fill="none" xmlns="http://www.w3.org/2000/svg">
<path d="M249.989 110.723H227.64V43.8643L249.989 31.9147V110.723Z" fill="#42818C"/>
<mask id="mask0_21_2" style="mask-type:luminance" maskUnits="userSpaceOnUse" x="258" y="0" width="25" height="131">
<path d="M258.406 0H282.892V131H258.406V0Z" fill="white"/>
</mask>
<g mask="url(#mask0_21_2)">
<path d="M281.904 130.643H259.554V11.9879L281.904 0.0382614V130.643Z" fill="#42818C"/>
</g>
<path d="M313.819 118.687H291.469V43.8643L313.819 31.9147V118.687Z" fill="#42818C"/>
<mask id="mask1_21_2" style="mask-type:luminance" maskUnits="userSpaceOnUse" x="322" y="2" width="25" height="94">
<path d="M322.07 2.7738H346.065V95.8205H322.07V2.7738Z" fill="white"/>
</mask>
<g mask="url(#mask1_21_2)">
<path d="M345.733 94.7811H323.377V15.9733L345.733 4.02361V94.7811Z" fill="#42818C"/>
</g>
<path d="M412.553 75.288V80.3127H388.322V47.9963H411.915V53.0211H394.316V61.4381H409.926V66.3608H394.316V75.288H412.553Z" fill="white"/>
<path d="M450.674 80.3127L444.068 70.8499C443.794 70.8882 443.38 70.9009 442.818 70.9009H435.524V80.3127H429.53V47.9963H442.818C445.624 47.9963 448.06 48.4682 450.139 49.3992C452.211 50.3174 453.799 51.6374 454.908 53.3526C456.031 55.0743 456.592 57.1212 456.592 59.4996C456.592 61.9355 455.992 64.027 454.806 65.7742C453.614 67.5277 451.911 68.8349 449.705 69.7021L457.153 80.3127H450.674ZM450.547 59.4996C450.547 57.4273 449.865 55.8395 448.506 54.73C447.142 53.6268 445.165 53.0721 442.563 53.0721H435.524V65.9527H442.563C445.165 65.9527 447.142 65.3916 448.506 64.2693C449.865 63.147 450.547 61.5593 450.547 59.4996Z" fill="white"/>
<path d="M486.841 47.9963C489.647 47.9963 492.082 48.4682 494.161 49.3992C496.234 50.3174 497.821 51.6374 498.931 53.3526C500.053 55.0743 500.614 57.1212 500.614 59.4996C500.614 61.8335 500.053 63.874 498.931 65.6211C497.821 67.3556 496.234 68.6819 494.161 69.6001C492.082 70.5183 489.647 70.9775 486.841 70.9775H479.546V80.3127H473.552V47.9963H486.841ZM486.586 65.9017C489.187 65.9017 491.164 65.3533 492.529 64.2438C493.887 63.1407 494.569 61.5593 494.569 59.4996C494.569 57.4273 493.887 55.8395 492.529 54.73C491.164 53.6268 489.187 53.0721 486.586 53.0721H479.546V65.9017H486.586Z" fill="white"/>
<g clip-path="url(#clip0_21_2)">
<path d="M50.72 49.3418V81.6582H45.7718L27.9685 59.7738V81.6582H22V49.3418H26.9482L44.7516 71.2261V49.3418H50.72Z" fill="white"/>
<path d="M93.8985 76.6335V81.6582H69.6676V49.3418H93.2609V54.3665H75.6616V62.7836H91.2714V67.7063H75.6616V76.6335H93.8985Z" fill="white"/>
<path d="M131.229 81.6582L122.455 69.3897L113.783 81.6582H106.948L118.961 65.1812L107.611 49.3418H114.395L122.659 60.8451L130.821 49.3418H137.325L126.026 64.9516L138.167 81.6582H131.229Z" fill="white"/>
<path d="M168.244 82.1173C164.941 82.1173 161.97 81.4031 159.317 79.9748C156.677 78.5464 154.605 76.5697 153.094 74.0318C151.595 71.4812 150.849 68.6436 150.849 65.5128C150.849 62.3691 151.595 59.5315 153.094 56.9937C154.605 54.443 156.677 52.4536 159.317 51.0252C161.97 49.5969 164.941 48.8827 168.244 48.8827C171.541 48.8827 174.506 49.5969 177.146 51.0252C179.799 52.4536 181.871 54.4367 183.37 56.9682C184.881 59.4869 185.64 62.3372 185.64 65.5128C185.64 68.6755 184.881 71.5258 183.37 74.0573C181.871 76.5761 179.799 78.5464 177.146 79.9748C174.506 81.4031 171.541 82.1173 168.244 82.1173ZM168.244 76.863C170.4 76.863 172.338 76.3784 174.06 75.4092C175.775 74.4399 177.127 73.0881 178.115 71.3537C179.097 69.6065 179.595 67.6553 179.595 65.5128C179.595 63.3575 179.097 61.4063 178.115 59.6718C177.127 57.9247 175.775 56.5601 174.06 55.5908C172.338 54.6216 170.4 54.137 168.244 54.137C166.083 54.137 164.144 54.6216 162.429 55.5908C160.707 56.5601 159.355 57.9247 158.373 59.6718C157.385 61.4063 156.894 63.3575 156.894 65.5128C156.894 67.6553 157.385 69.6065 158.373 71.3537C159.355 73.0881 160.707 74.4399 162.429 75.4092C164.144 76.3784 166.083 76.863 168.244 76.863Z" fill="white"/>
</g>
<defs>
<clipPath id="clip0_21_2">
<rect width="163.64" height="33.2346" fill="white" transform="translate(22 48.8827)"/>
</clipPath>
</defs>
</svg>
